        <svg
          width="66"
          height="66"
          viewBox="0 0 66 66"
          fill="none"
          xmlns="http://www.w3.org/2000/svg"
        >
          <rect x="5" y="5" width="56" height="56" rx="28" fill="#F0F0F0" />
          <g opacity="0.5">
            <path
              d="M34.8847 23.0215C33.2909 23.2473 31.9121 24.5133 30.3047 24.5062C29.9281 24.5051 29.5506 24.4316 29.1769 24.4806C28.8033 24.5297 28.415 24.7391 28.2905 25.1121C28.1562 25.5147 28.3664 25.9745 28.2409 26.3802C27.6901 26.7603 27.2951 27.3826 27.1764 28.0641C27.1686 28.107 27.1647 28.151 27.1657 28.1939C27.1754 28.6169 27.6074 28.619 27.841 28.8448C28.1543 29.1473 27.9577 29.7532 27.5753 29.9504C27.1929 30.1466 26.7346 30.0485 26.3328 29.8993C25.9309 29.7501 25.531 29.5509 25.1048 29.557C24.2553 29.5682 23.4925 30.3888 22.6654 30.1844C22.0884 30.0413 21.7313 29.4548 21.2817 29.0481C20.6162 28.4473 19.6558 28.2286 18.8141 28.4861C17.8732 28.7743 17.1113 29.6479 16.9498 30.6698C16.9138 30.8976 16.7464 31.0846 16.5275 31.1122C16.2239 31.15 16.1694 30.8629 15.9982 30.7157C15.7666 30.5175 15.392 30.6544 15.2217 30.913C15.0514 31.1715 15.03 31.5036 15.0135 31.8173C14.9745 32.5755 14.9843 33.4583 15.5506 33.9314C15.8454 34.1777 16.2657 34.2829 16.4487 34.6293C16.6939 35.0912 16.3358 35.8902 17.0627 35.8953C17.41 35.8974 17.808 35.8749 18.024 35.5898C18.1028 35.4846 18.1476 35.3528 18.2361 35.2557C18.3772 35.1004 18.5962 35.0656 18.7995 35.038L19.7735 34.9093C19.8407 34.9001 19.9029 34.9542 19.901 35.0248C19.901 35.0278 19.901 35.0299 19.901 35.0329C19.8971 35.1157 19.9584 35.1842 20.0372 35.1831C20.1618 35.1821 20.2785 35.2179 20.3194 35.3344C20.3301 35.365 20.334 35.3987 20.3505 35.4253C20.3788 35.4692 20.4342 35.4825 20.4809 35.503C20.6697 35.5847 20.7534 35.8596 20.6444 36.0415C20.6133 36.0926 20.5704 36.1365 20.552 36.1937C20.5306 36.2591 20.5451 36.3317 20.5481 36.4011C20.5588 36.6382 20.4333 36.8569 20.2912 37.0418C20.0051 37.4158 19.6334 37.7172 19.217 37.9134C19.0438 37.9952 18.8521 38.0687 18.748 38.2363C18.6273 38.4305 18.6672 38.688 18.7295 38.9107C18.9523 39.7006 19.3697 40.3433 20.0197 40.795C19.8611 41.1148 20.1735 41.4694 20.4877 41.3345C20.8215 41.1914 21.2117 41.2773 21.6252 41.4867C21.7293 41.5388 23.4574 42.719 23.4526 42.2643C23.4448 41.6083 23.4234 40.9513 23.3893 40.2963C23.3601 39.7507 23.111 38.8453 23.2434 38.3273C23.401 37.7111 24.1142 37.7132 24.773 37.7152C24.9968 37.7152 25.2147 37.7162 25.4025 37.6927C25.9776 37.6202 26.25 37.2779 26.7395 37.6508C27.2474 38.0381 27.6716 38.8484 28.0696 39.3603C28.1737 39.4942 28.2817 39.6311 28.4287 39.7077C28.7089 39.8539 29.0407 39.7425 29.3482 39.6863C30.1159 39.5453 30.9391 39.7813 31.5307 40.3147C31.6552 40.4271 31.772 40.5548 31.8382 40.7122C31.9073 40.8787 31.915 41.0647 31.9569 41.2415C32.0785 41.7534 32.4706 42.1366 32.8443 42.4891C32.8998 42.5412 32.9552 42.5934 33.0117 42.6455C33.5478 43.1359 34.3574 43.1165 34.8643 42.5934C34.9548 42.5004 35.0541 42.4156 35.1562 42.343C35.5085 42.0886 35.9123 41.8934 36.1818 41.5439C36.32 41.3651 36.4221 41.1465 36.607 41.0228C36.8941 40.8317 37.2307 40.9421 37.5752 41.0514C37.8671 41.1444 38.1639 41.2384 38.4402 41.1475C38.6261 40.4986 39.4454 40.3934 40.0905 40.4118C40.9302 40.4353 41.7709 40.4598 42.6106 40.4833C43.0427 40.4956 43.5204 40.5272 43.8259 40.8491C43.8493 40.8747 43.8727 40.9012 43.896 40.9298C44.2366 41.3478 44.8866 41.1444 44.9644 40.5998C45.1006 39.6383 44.908 38.6236 44.4049 37.8061C45.0014 37.7397 45.5978 37.6743 46.1943 37.6079C46.3568 37.5905 46.5358 37.5629 46.6429 37.4332C46.6964 37.3678 46.71 37.2697 46.6896 37.1879C46.6351 36.9672 46.6273 36.7363 46.6944 36.5197L46.9737 35.6184C47.0117 35.4979 47.0574 35.365 47.1644 35.3068C47.2384 35.2669 47.3259 35.27 47.4087 35.2751L47.938 35.3047C48.623 35.3436 49.2467 34.898 49.4715 34.2165C49.7293 33.4348 50.2665 32.7522 50.969 32.3742C51.0789 32.0635 50.8843 31.6752 50.5778 31.5945C50.4397 31.5577 50.2966 31.5792 50.1536 31.5996C50.0543 31.6139 49.9541 31.6282 49.8558 31.6231C48.9567 31.5802 48.7592 30.2161 48.0187 29.6786C47.5313 29.3251 46.9299 29.3721 46.5378 29.839L46.1583 29.9208C46.0522 29.6296 45.7195 29.4875 45.4237 29.5151C45.1279 29.5427 44.8603 29.7011 44.6024 29.8564C43.6557 28.1162 42.6077 26.4364 41.4663 24.8301C41.4002 24.7361 41.3068 24.6635 41.1988 24.6339C40.7006 24.4959 40.578 25.3839 40.143 25.671C39.7888 25.904 39.3227 25.6649 39.0104 25.3727C38.6981 25.0804 38.3984 24.7126 37.9839 24.6553C37.8515 24.637 37.7124 24.6523 37.5752 24.6666C37.3465 24.6911 37.1217 24.7167 36.9359 24.5879C36.6479 24.3897 36.642 23.9544 36.4825 23.6335C36.2528 23.1727 35.7284 23 35.2165 23C35.1046 23 34.9937 23.0082 34.8877 23.0235"
              fill="#93969B"
            />
            <path
              d="M22.1885 34.47H23.4342C23.4682 34.6212 23.5303 34.7298 23.6206 34.7957C23.7109 34.8617 23.8449 34.8952 24.0245 34.8952C24.1741 34.8952 24.2925 34.8678 24.378 34.815C24.4634 34.7612 24.5061 34.6871 24.5061 34.5928C24.5061 34.4415 24.3265 34.3187 23.9673 34.2254C23.8954 34.2061 23.8401 34.1919 23.8022 34.1827C23.508 34.1036 23.274 34.0315 23.0992 33.9655C22.9254 33.9006 22.7982 33.8397 22.7186 33.7829C22.5652 33.6682 22.4497 33.5301 22.3729 33.3698C22.2962 33.2094 22.2584 33.0267 22.2584 32.8207C22.2584 32.4076 22.4069 32.0829 22.705 31.8464C23.0031 31.6109 23.4128 31.4922 23.9342 31.4922C24.4557 31.4922 24.8508 31.6048 25.145 31.8302C25.4392 32.0555 25.6053 32.3792 25.6431 32.7994H24.4275C24.4081 32.6766 24.3556 32.5853 24.2712 32.5244C24.1877 32.4645 24.0673 32.434 23.9119 32.434C23.775 32.434 23.6731 32.4574 23.6061 32.5051C23.5391 32.5528 23.5061 32.6238 23.5061 32.7202C23.5061 32.8583 23.6808 32.973 24.0313 33.0653C24.0624 33.0744 24.0857 33.0815 24.1022 33.0856C24.1527 33.0988 24.2294 33.1191 24.3323 33.1445C24.7965 33.2673 25.0994 33.3789 25.2421 33.4784C25.4188 33.6012 25.548 33.7402 25.6295 33.8975C25.7111 34.0538 25.7509 34.2396 25.7509 34.4527C25.7509 34.9135 25.5965 35.2667 25.2897 35.5143C24.9819 35.7619 24.5411 35.8848 23.9663 35.8848C23.4371 35.8848 23.0177 35.7609 22.7079 35.5143C22.3982 35.2667 22.2244 34.9185 22.1865 34.47"
              fill="white"
            />
            <path
              d="M28.9167 34.1523H30.1304C30.0945 34.7014 29.909 35.1276 29.575 35.4311C29.241 35.7335 28.7885 35.8858 28.2176 35.8858C27.5787 35.8858 27.0758 35.6899 26.7087 35.2981C26.3417 34.9064 26.1592 34.3705 26.1592 33.6885C26.1592 33.0064 26.3407 32.4736 26.7039 32.0808C27.067 31.6881 27.5612 31.4922 28.1885 31.4922C28.7662 31.4922 29.2206 31.6383 29.5517 31.9296C29.8828 32.2209 30.0683 32.638 30.1081 33.18H28.8808C28.8633 32.9669 28.7973 32.8055 28.6827 32.6969C28.5691 32.5883 28.4089 32.5345 28.203 32.5345C27.9525 32.5345 27.7642 32.6309 27.6379 32.8217C27.5127 33.0135 27.4496 33.3028 27.4496 33.6895C27.4496 34.0762 27.5166 34.3563 27.6496 34.5501C27.7836 34.745 27.9797 34.8414 28.238 34.8414C28.4361 34.8414 28.5943 34.7815 28.7109 34.6628C28.8274 34.544 28.8953 34.3735 28.9157 34.1533"
              fill="white"
            />
            <path
              d="M30.668 35.7719V31.6016H31.939V32.9829L33.0876 31.6016H34.5741L33.1497 33.1381L34.7586 35.7719H33.2303L32.2555 34.1013L31.939 34.4433V35.7719H30.668Z"
              fill="white"
            />
            <path
              d="M35.3825 32.5198C35.4505 32.5563 35.5544 32.5918 35.6612 32.5918C35.7767 32.5918 35.8379 32.5421 35.8379 32.466C35.8379 32.3898 35.7855 32.3523 35.6515 32.3026C35.467 32.2356 35.3466 32.128 35.3466 31.9595C35.3466 31.7616 35.5049 31.6094 35.767 31.6094C35.8923 31.6094 35.9845 31.6368 36.0505 31.6682L35.9942 31.8804C35.9496 31.858 35.8709 31.8256 35.7612 31.8256C35.6515 31.8256 35.6 31.8773 35.6 31.9372C35.6 32.0113 35.6631 32.0438 35.8059 32.1006C36.002 32.1767 36.0952 32.2833 36.0952 32.4477C36.0952 32.6426 35.9515 32.808 35.6466 32.808C35.5194 32.808 35.3942 32.7735 35.3311 32.7369L35.3825 32.5198Z"
              fill="white"
            />
            <path
              d="M36.7295 32.7846L36.7149 32.7003H36.7101C36.6576 32.7673 36.5751 32.8038 36.479 32.8038C36.3158 32.8038 36.2188 32.68 36.2188 32.545C36.2188 32.3258 36.4061 32.2203 36.6926 32.2223V32.2101C36.6926 32.1655 36.6693 32.1015 36.546 32.1015C36.4634 32.1015 36.376 32.1309 36.3236 32.1655L36.277 31.996C36.3333 31.9635 36.444 31.9219 36.5906 31.9219C36.8596 31.9219 36.945 32.0873 36.945 32.2862V32.5795C36.945 32.6607 36.9479 32.7379 36.9567 32.7846H36.7304H36.7295ZM36.6994 32.3857C36.5673 32.3837 36.4654 32.4172 36.4654 32.5186C36.4654 32.5856 36.5081 32.6191 36.5644 32.6191C36.6275 32.6191 36.678 32.5765 36.6945 32.5227C36.6984 32.5095 36.6994 32.4933 36.6994 32.4781V32.3867V32.3857Z"
              fill="white"
            />
            <path
              d="M37.3911 31.5625H37.1406V32.7875H37.3911V31.5625Z"
              fill="white"
            />
            <path
              d="M37.7877 32.4456C37.7955 32.5542 37.8984 32.6059 38.0159 32.6059C38.1013 32.6059 38.1712 32.5937 38.2382 32.5714L38.2712 32.749C38.1887 32.7835 38.0877 32.8008 37.979 32.8008C37.7052 32.8008 37.5488 32.6354 37.5488 32.3715C37.5488 32.1573 37.676 31.9219 37.9566 31.9219C38.2178 31.9219 38.3169 32.134 38.3169 32.3431C38.3169 32.3877 38.312 32.4273 38.3081 32.4466H37.7887L37.7877 32.4456ZM38.0829 32.2659C38.0829 32.202 38.0566 32.0954 37.9411 32.0954C37.8353 32.0954 37.7925 32.1959 37.7857 32.2659H38.0829Z"
              fill="white"
            />
            <path
              d="M38.4646 32.5552C38.5112 32.5846 38.6063 32.6191 38.6811 32.6191C38.7559 32.6191 38.7879 32.5917 38.7879 32.5481C38.7879 32.5044 38.7636 32.4841 38.6695 32.4517C38.5025 32.3928 38.4384 32.2984 38.4403 32.1979C38.4403 32.0406 38.5695 31.9219 38.7685 31.9219C38.8627 31.9219 38.9462 31.9442 38.9967 31.9706L38.952 32.1523C38.9161 32.1309 38.8462 32.1035 38.7772 32.1035C38.7161 32.1035 38.6811 32.1289 38.6811 32.1726C38.6811 32.2121 38.7122 32.2324 38.8112 32.269C38.9646 32.3238 39.0287 32.405 39.0307 32.5298C39.0307 32.6871 38.9112 32.8028 38.6811 32.8028C38.5753 32.8028 38.4811 32.7785 38.4199 32.744L38.4646 32.5562V32.5552Z"
              fill="white"
            />
            <path
              d="M41.4317 33.8444C41.4317 34.1529 41.2219 34.295 41.0054 34.295C40.7695 34.295 40.5879 34.1326 40.5879 33.8606C40.5879 33.5886 40.7597 33.4141 41.018 33.4141C41.2763 33.4141 41.4307 33.5917 41.4307 33.8454M40.8462 33.8535C40.8462 33.9987 40.9044 34.1073 41.0112 34.1073C41.1083 34.1073 41.1714 34.0058 41.1714 33.8535C41.1714 33.7277 41.1248 33.5998 41.0112 33.5998C40.8908 33.5998 40.8462 33.7287 40.8462 33.8535Z"
              fill="white"
            />
            <path
              d="M41.6146 34.2823V33.6318H41.5088V33.4389H41.6146V33.4065C41.6146 33.305 41.6447 33.1923 41.7166 33.1233C41.7797 33.0614 41.8671 33.0391 41.9389 33.0391C41.9952 33.0391 42.038 33.0462 42.0729 33.0563L42.0632 33.2583C42.0418 33.2512 42.0156 33.2461 41.9826 33.2461C41.9001 33.2461 41.8651 33.3131 41.8651 33.3963V33.44H42.0273V33.6328H41.8671V34.2834H41.6146V34.2823Z"
              fill="white"
            />
            <path
              d="M35.375 34.6104H35.6236V35.1239H35.6284C35.6537 35.0793 35.6799 35.0377 35.7042 34.9961L35.9566 34.6094H36.2654L35.8974 35.1047L36.2848 35.7725H35.9916L35.7197 35.2711L35.6236 35.3939V35.7735H35.375V34.6114V34.6104Z"
              fill="white"
            />
            <path
              d="M36.8379 35.7689L36.8233 35.6847H36.8185C36.766 35.7517 36.6835 35.7882 36.5874 35.7882C36.4242 35.7882 36.3271 35.6644 36.3271 35.5294C36.3271 35.3102 36.5145 35.2046 36.801 35.2067V35.1945C36.801 35.1498 36.7777 35.0859 36.6544 35.0859C36.5718 35.0859 36.4844 35.1153 36.432 35.1498L36.3854 34.9803C36.4417 34.9479 36.5524 34.9062 36.699 34.9062C36.968 34.9062 37.0534 35.0717 37.0534 35.2706V35.5639C37.0534 35.6451 37.0563 35.7222 37.0651 35.7689H36.8388H36.8379ZM36.8078 35.3701C36.6757 35.368 36.5738 35.4015 36.5738 35.503C36.5738 35.57 36.6165 35.6035 36.6728 35.6035C36.7359 35.6035 36.7864 35.5609 36.8029 35.5071C36.8068 35.4939 36.8078 35.4776 36.8078 35.4624V35.3711V35.3701Z"
              fill="white"
            />
            <path
              d="M37.1855 35.6239L37.4399 35.291C37.4865 35.2342 37.5225 35.1926 37.5691 35.1408V35.1367H37.2147V34.9297H37.8749V35.087L37.6322 35.4057C37.5875 35.4605 37.5458 35.5143 37.5001 35.561V35.565H37.8875V35.7741H37.1865V35.6239H37.1855Z"
              fill="white"
            />
            <path
              d="M38.4834 35.7689L38.4688 35.6847H38.464C38.4115 35.7517 38.329 35.7882 38.2329 35.7882C38.0698 35.7882 37.9727 35.6644 37.9727 35.5294C37.9727 35.3102 38.1601 35.2046 38.4465 35.2067V35.1945C38.4465 35.1498 38.4232 35.0859 38.2999 35.0859C38.2173 35.0859 38.13 35.1153 38.0775 35.1498L38.0309 34.9803C38.0872 34.9479 38.1979 34.9062 38.3445 34.9062C38.6135 34.9062 38.6989 35.0717 38.6989 35.2706V35.5639C38.6989 35.6451 38.7018 35.7222 38.7106 35.7689H38.4844H38.4834ZM38.4533 35.3701C38.3212 35.368 38.2193 35.4015 38.2193 35.503C38.2193 35.57 38.262 35.6035 38.3183 35.6035C38.3814 35.6035 38.4319 35.5609 38.4484 35.5071C38.4523 35.4939 38.4533 35.4776 38.4533 35.4624V35.3711V35.3701Z"
              fill="white"
            />
            <path
              d="M39.145 35.2827H39.1489C39.1674 35.2482 39.1868 35.2137 39.2062 35.1812L39.3693 34.9275H39.6713L39.3819 35.2695L39.7121 35.7719H39.4033L39.2081 35.4248L39.1441 35.508V35.7719H38.8936V34.5469H39.1441V35.2837L39.145 35.2827Z"
              fill="white"
            />
            <path
              d="M39.8066 34.5469H40.0571V35.0279H40.061C40.0872 34.9914 40.1203 34.964 40.1601 34.9417C40.196 34.9214 40.2445 34.9092 40.2902 34.9092C40.4504 34.9092 40.5727 35.0249 40.5727 35.2786V35.7719H40.3222V35.3081C40.3222 35.1974 40.2853 35.1223 40.1921 35.1223C40.1261 35.1223 40.0853 35.167 40.0669 35.2137C40.0601 35.2309 40.0581 35.2533 40.0581 35.2725V35.7729H39.8076V34.5479L39.8066 34.5469Z"
              fill="white"
            />
            <path
              d="M40.7712 35.5396C40.8178 35.569 40.913 35.6035 40.9878 35.6035C41.0625 35.6035 41.0946 35.5761 41.0946 35.5325C41.0946 35.4888 41.0703 35.4685 40.9761 35.436C40.8091 35.3772 40.745 35.2828 40.747 35.1823C40.747 35.025 40.8761 34.9062 41.0751 34.9062C41.1693 34.9062 41.2538 34.9286 41.3033 34.955L41.2586 35.1366C41.2227 35.1153 41.1528 35.0879 41.0839 35.0879C41.0227 35.0879 40.9878 35.1133 40.9878 35.1569C40.9878 35.1965 41.0188 35.2168 41.1179 35.2534C41.2713 35.3082 41.3354 35.3894 41.3373 35.5142C41.3373 35.6715 41.2179 35.7872 40.9878 35.7872C40.8819 35.7872 40.7877 35.7628 40.7266 35.7283L40.7712 35.5406V35.5396Z"
              fill="white"
            />
            <path
              d="M41.7695 34.6885V34.9301H41.9491V35.1229H41.7695V35.4284C41.7695 35.5299 41.7928 35.5766 41.8685 35.5766C41.8996 35.5766 41.9248 35.5735 41.9432 35.5695L41.9452 35.7674C41.9122 35.7806 41.853 35.7897 41.7821 35.7897C41.7015 35.7897 41.6335 35.7603 41.5937 35.7176C41.5471 35.6679 41.5248 35.5867 41.5248 35.467V35.1219H41.417V34.9291H41.5248V34.7464L41.7704 34.6875L41.7695 34.6885Z"
              fill="white"
            />
            <path
              d="M42.5537 35.7689L42.5391 35.6847H42.5343C42.4818 35.7517 42.3993 35.7882 42.3032 35.7882C42.1401 35.7882 42.043 35.6644 42.043 35.5294C42.043 35.3102 42.2304 35.2046 42.5168 35.2067V35.1945C42.5168 35.1498 42.4935 35.0859 42.3702 35.0859C42.2876 35.0859 42.2003 35.1153 42.1478 35.1498L42.1022 34.9803C42.1585 34.9479 42.2692 34.9062 42.4158 34.9062C42.6848 34.9062 42.7702 35.0717 42.7702 35.2706V35.5639C42.7702 35.6451 42.7741 35.7222 42.7819 35.7689H42.5556H42.5537ZM42.5236 35.3701C42.3915 35.368 42.2896 35.4015 42.2896 35.503C42.2896 35.57 42.3323 35.6035 42.3886 35.6035C42.4517 35.6035 42.5022 35.5609 42.5187 35.5071C42.5226 35.4939 42.5236 35.4776 42.5236 35.4624V35.3711V35.3701Z"
              fill="white"
            />
            <path
              d="M42.9658 35.1945C42.9658 35.0889 42.9629 34.9996 42.959 34.9255H43.1765L43.1881 35.0412H43.193C43.226 34.9874 43.3085 34.9062 43.4425 34.9062C43.6076 34.9062 43.7319 35.0199 43.7319 35.2686V35.7689H43.4814V35.3011C43.4814 35.1925 43.4445 35.1184 43.3542 35.1184C43.2852 35.1184 43.2435 35.1681 43.227 35.2168C43.2202 35.232 43.2173 35.2584 43.2173 35.2828V35.7689H42.9668V35.1945H42.9658Z"
              fill="white"
            />
            <path
              d="M36.521 33.9306C36.5298 34.0422 36.6346 34.096 36.755 34.096C36.8434 34.096 36.9143 34.0838 36.9842 34.0605L37.0182 34.2432C36.9337 34.2787 36.8298 34.2959 36.7172 34.2959C36.4356 34.2959 36.2734 34.1254 36.2734 33.8544C36.2734 33.6342 36.4045 33.3906 36.6929 33.3906C36.9609 33.3906 37.0628 33.6088 37.0628 33.824C37.0628 33.8707 37.058 33.9113 37.0541 33.9306H36.5191H36.521ZM36.8249 33.7458C36.8249 33.6799 36.7978 33.5703 36.6793 33.5703C36.5706 33.5703 36.5269 33.6728 36.5201 33.7458H36.8259H36.8249Z"
              fill="white"
            />
            <path
              d="M37.2177 33.687C37.2177 33.5784 37.2139 33.486 37.2109 33.4099H37.4352L37.4469 33.5287H37.4517C37.4857 33.4738 37.5712 33.3906 37.7081 33.3906C37.878 33.3906 38.0052 33.5073 38.0052 33.7631V34.2777H37.7469V33.7966C37.7469 33.685 37.709 33.6088 37.6158 33.6088C37.5449 33.6088 37.5022 33.6606 37.4847 33.7103C37.478 33.7266 37.4741 33.753 37.4741 33.7783V34.2787H37.2158V33.688L37.2177 33.687Z"
              fill="white"
            />
            <path
              d="M38.492 33.1641V33.4127H38.6775V33.6116H38.492V33.9263C38.492 34.0308 38.5154 34.0785 38.594 34.0785C38.626 34.0785 38.6523 34.0744 38.6707 34.0714L38.6726 34.2754C38.6387 34.2896 38.5775 34.2987 38.5047 34.2987C38.4212 34.2987 38.3522 34.2683 38.3115 34.2247C38.2639 34.1729 38.2406 34.0897 38.2406 33.9669V33.6116H38.1299V33.4127H38.2406V33.225L38.494 33.1641H38.492Z"
              fill="white"
            />
            <path
              d="M39.0161 33.9306C39.0249 34.0422 39.1297 34.096 39.2501 34.096C39.3385 34.096 39.4094 34.0838 39.4793 34.0605L39.5133 34.2432C39.4288 34.2787 39.3249 34.2959 39.2123 34.2959C38.9307 34.2959 38.7686 34.1254 38.7686 33.8544C38.7686 33.6342 38.8996 33.3906 39.188 33.3906C39.456 33.3906 39.5579 33.6088 39.5579 33.824C39.5579 33.8707 39.5531 33.9113 39.5492 33.9306H39.0142H39.0161ZM39.3201 33.7458C39.3201 33.6799 39.2929 33.5703 39.1744 33.5703C39.0657 33.5703 39.022 33.6728 39.0152 33.7458H39.321H39.3201Z"
              fill="white"
            />
            <path
              d="M39.7138 33.6893C39.7138 33.5614 39.7099 33.4782 39.707 33.4031H39.9294L39.9381 33.5625H39.9449C39.9876 33.4366 40.0896 33.3828 40.1692 33.3828C40.1925 33.3828 40.2051 33.3828 40.2236 33.3869V33.6406C40.2051 33.6365 40.1828 33.6335 40.1537 33.6335C40.0585 33.6335 39.9944 33.6863 39.977 33.7705C39.9731 33.7888 39.9721 33.8101 39.9721 33.8314V34.2719H39.7138V33.6893Z"
              fill="white"
            />
          </g>
          <circle
            cx="33"
            cy="33"
            r="32"
            stroke="#C1C3C5"
            stroke-width="1.5"
            stroke-linecap="round"
            stroke-linejoin="round"
            stroke-dasharray="2 4"
          />
        </svg>